<svg width="78" height="77" viewBox="0 0 78 77" fill="none" xmlns="http://www.w3.org/2000/svg">
<path fill-rule="evenodd" clip-rule="evenodd" d="M77.6471 38.4706C77.6471 59.7173 60.2651 76.9412 38.8235 76.9412C17.3819 76.9412 0 59.7173 0 38.4706C0 17.2239 17.3819 0 38.8235 0C60.2651 0 77.6471 17.2239 77.6471 38.4706ZM38.5169 48.656C34.9572 48.656 32.0716 45.7964 32.0716 42.2692C32.0716 38.543 33.3669 35.6047 35.3849 33.3261C36.8781 31.6403 38.7958 30.355 39.9237 29.5995C40.0728 29.4994 40.2082 29.4087 40.327 29.3276C41.6485 28.4245 42.1439 27.9749 42.4335 27.5638C42.594 27.3358 42.9296 26.8061 42.9111 25.3327L42.9098 25.2303L42.912 25.1281C42.9449 23.4682 42.3822 22.5162 41.7772 21.9467C41.1097 21.318 39.9976 20.8007 38.4675 20.8007C36.0419 20.8007 34.0246 22.7663 34.0246 25.2537C34.0246 28.7809 31.1388 31.6405 27.5792 31.6405C24.0195 31.6405 21.1339 28.7809 21.1339 25.2537C21.1339 15.7678 28.8664 8.02727 38.4675 8.02727C42.9511 8.02727 47.3498 9.5735 50.6565 12.6866C54.0027 15.837 55.8746 20.2653 55.8018 25.2757C55.8316 29.0875 54.8466 32.2589 53.0036 34.8751C51.2733 37.3315 49.0507 38.8824 47.6459 39.8427L47.3541 40.042C45.8768 41.0511 45.4145 41.3668 45.0735 41.7517C45.0686 41.7574 45.0628 41.7617 45.0563 41.7662C45.0183 41.7943 44.9622 41.8354 44.9622 42.2692C44.9622 45.7964 42.0765 48.656 38.5169 48.656ZM44.8391 59.2517C44.8391 55.7244 41.9536 52.865 38.3938 52.865C34.8341 52.865 31.9485 55.7244 31.9485 59.2517V63.5917C31.9485 67.1189 34.8341 69.9784 38.3938 69.9784C41.9536 69.9784 44.8391 67.1189 44.8391 63.5917V59.2517Z" fill="#D9D9D9"/>
</svg>
