<svg width="21" height="20" viewBox="0 0 21 20" fill="none" xmlns="http://www.w3.org/2000/svg">
<g clip-path="url(#clip0_115_8)">
<path fill-rule="evenodd" clip-rule="evenodd" d="M11.55 17C11.55 17.552 11.08 18 10.5 18C9.92 18 9.45001 17.552 9.45001 17V3C9.45001 2.448 9.92 2 10.5 2C11.08 2 11.55 2.448 11.55 3V17ZM11.55 0H9.45001C8.29001 0 7.35001 0.895 7.35001 2V18C7.35001 19.105 8.29001 20 9.45001 20H11.55C12.71 20 13.65 19.105 13.65 18V2C13.65 0.895 12.71 0 11.55 0ZM4.20001 17C4.20001 17.552 3.72999 18 3.14999 18C2.56999 18 2.10001 17.552 2.10001 17V7C2.10001 6.448 2.56999 6 3.14999 6C3.72999 6 4.20001 6.448 4.20001 7V17ZM4.20001 4H2.10001C0.940006 4 0 4.895 0 6V18C0 19.105 0.940006 20 2.10001 20H4.20001C5.36001 20 6.29999 19.105 6.29999 18V6C6.29999 4.895 5.36001 4 4.20001 4ZM18.9 17C18.9 17.552 18.43 18 17.85 18C17.27 18 16.8 17.552 16.8 17V13C16.8 12.448 17.27 12 17.85 12C18.43 12 18.9 12.448 18.9 13V17ZM18.9 10H16.8C15.64 10 14.7 10.895 14.7 12V18C14.7 19.105 15.64 20 16.8 20H18.9C20.06 20 21 19.105 21 18V12C21 10.895 20.06 10 18.9 10Z" fill="#D9D9D9"/>
</g>
<defs>
<clipPath id="clip0_115_8">
<rect width="21" height="20" fill="white"/>
</clipPath>
</defs>
</svg>
